<svg xmlns="http://www.w3.org/2000/svg" viewBox="0 0 37 37" fill="#fff" xmlns:v="https://vecta.io/nano"><path d="M34.2 33.3h1.7c.5 0 .6.1.6.6v2.3c0 .5-.1.6-.6.6H13.2h-12c-.6 0-.7-.1-.7-.7v-2.3c0-.4.1-.6.6-.6h1.7.1v-.3-22.3a.55.55 0 0 0-.3-.5c-.8-.6-1.2-1.3-1.2-2.3V5.5c0-.2 0-.4.1-.5L3 .6c.1-.3.3-.4.6-.4h29.8c.4 0 .5.1.7.5L35.5 5c.1.2.1.5.1.7v2.1c0 1-.4 1.8-1.2 2.3-.2.1-.2.2-.2.4V33v.3zM3.7 10.6v22.6h29.6V10.6c-1.2.2-2.2-.3-2.9-1.2-1.2 1.6-3.5 1.7-4.7 0-1.2 1.7-3.5 1.7-4.8 0-.6.8-1.4 1.3-2.4 1.3s-1.8-.5-2.4-1.3c-1.2 1.6-3.5 1.8-4.8 0-.6.8-1.4 1.3-2.4 1.3s-1.8-.5-2.4-1.3c-.8 1.1-1.2 1.2-2.8 1.2zM1.4 35.9h34.2v-1.8H1.4v1.8zM7.2 1H4c-.2 0-.3.1-.3.3L2.6 4.6c0 .1-.1.2-.1.4h3.8l.9-4zm22.6 0l.9 3.9h3.8v-.1l-1.2-3.7c0-.1-.1-.1-.2-.1h-3.3zM15.9 1h-3.4l-.6 3.9h3.8l.2-3.9zm4.5 3.9L20.2 1h-3.4l-.2 3.9h3.8zm.9 0h3.8L24.5 1h-3.4l.2 3.9zM8.1 1l-.9 3.9H11l.6-3.9H8.1zm21.7 3.9l-.9-3.7c0-.1-.2-.2-.3-.2h-2.1-1l.6 3.9h3.7zm1 .9v2a1.86 1.86 0 0 0 1.7 1.9c1 .1 2-.6 2.1-1.6.1-.8 0-1.5 0-2.3h-3.8zm-28.5 0V8c.1 1 .9 1.7 1.9 1.8.9 0 1.8-.6 1.9-1.5.1-.8 0-1.6 0-2.4-1.2-.1-2.5-.1-3.8-.1zm14.3 0v2.1c.1 1.1.9 1.8 2 1.8s1.8-.8 1.9-1.9V6v-.2h-3.9zm9.5 0c0 .8-.1 1.6 0 2.4.1.9.9 1.5 1.8 1.5s1.7-.5 1.9-1.3.1-1.7.2-2.6h-3.9zm-19 0v1.9.4c.1 1 .8 1.6 1.8 1.7.9.1 1.8-.5 2-1.3.1-.9 0-1.8.1-2.7H7.1zm14.3 0V6v1.9c0 1 .8 1.7 1.7 1.8 1 .1 1.9-.5 2-1.5.1-.8 0-1.6 0-2.4h-3.7zm-5.8.1h-3.8v.2 2c0 1 .8 1.7 1.7 1.8 1 .1 1.9-.5 2-1.5.2-.9.1-1.7.1-2.5zm.8 15.7l-2.1-2.1c-.1-.1-.2 0-.3 0-2 .5-4-.6-4.5-2.7-.2-.7-.1-1.4.1-2.1.2-.4.5-.5.8-.2l1.4 1.4c.4.4.8.4 1.2.1.3-.3.3-.8-.1-1.2l-1.4-1.4c-.4-.4-.3-.7.2-.9 1.3-.4 2.6-.2 3.6.7 1.1 1 1.4 2.2 1.1 3.6-.1.3 0 .4.2.6l2 2c.2-.3.4-.5.6-.7.4-.4.8-.9 1.3-1.3.2-.2.2-.3.1-.5-.3-1.4 0-2.6 1-3.5 1-1 2.2-1.2 3.6-.8.6.2.7.5.2.9L24.1 15c-.4.4-.4.8-.1 1.2.3.3.8.3 1.2 0l1.4-1.4c.4-.4.7-.3.9.2.4 1.3.2 2.6-.7 3.6-1 1.1-2.2 1.4-3.6 1-.3-.1-.4 0-.6.2l-2 1.9c.6.5 1.1 1 1.6 1.6.4.4.7.6 1.3.4 1.3-.2 2.5.2 3.3 1.3.9 1 1 2.2.6 3.5-.2.5-.5.5-.9.2l-1.4-1.4c-.4-.4-.9-.4-1.2-.1s-.3.8.1 1.2l1.4 1.4c.4.4.3.7-.2.9-1.3.4-2.6.2-3.6-.8-1.1-1-1.4-2.2-1-3.6.1-.2 0-.4-.1-.5-.7-.6-1.3-1.3-2-2-.2.3-.4.5-.6.7-.4.4-.8.9-1.3 1.3-.2.2-.2.3-.2.5.4 1.4 0 2.6-1 3.5-1 1-2.2 1.2-3.6.8-.6-.2-.6-.5-.2-.9l1.4-1.4c.4-.4.4-.8.1-1.2-.3-.3-.8-.3-1.2.1l-1.4 1.4c-.4.4-.7.3-.9-.2-.5-1.3-.2-2.6.7-3.6 1-1.1 2.2-1.4 3.6-1.1.3.1.4 0 .6-.2l1.9-1.9zm10.4 6v-.3c.1-1.9-1.9-3.3-3.7-2.6-.4.1-.6.1-.9-.2l-6.6-6.6c-.3-.3-.3-.5-.2-.9.6-1.5-.3-3.2-1.9-3.6-.3-.1-.6-.1-.9-.1v.1c.4.3.7.7 1 1 .5.5.6 1.3.2 1.9-.3.6-1 .9-1.7.8-.5-.1-.8-.4-1.1-.7-.2-.3-.5-.5-.8-.8v.2c-.1 2 1.9 3.4 3.7 2.6.3-.1.6-.1.8.2l6.6 6.6c.3.3.3.5.2.8-.6 1.5.3 3.2 1.9 3.6.3.1.6.1 1 .1v-.1c-.3-.3-.7-.6-1-1-.4-.4-.5-.8-.5-1.3.1-.7.4-1.2 1.1-1.4s1.2-.1 1.7.4c.4.6.7.9 1.1 1.3zm-16.6 0l1-1a1.57 1.57 0 0 1 1.7-.4c1.2.4 1.5 1.8.7 2.7-.3.4-.7.7-1.1 1.1h.3c1.9.1 3.3-1.9 2.6-3.7-.1-.3-.1-.6.2-.8l1.7-1.7c.2-.2.4-.3.6-.5-.4-.4-.6-.7-.9-1l-2.2 2.2c-.3.3-.5.3-.9.2-1.9-.8-3.9.8-3.7 2.9zm16.5-11.9l-1 1c-.7.6-1.7.6-2.3 0s-.6-1.6 0-2.3c.2-.3.5-.5.7-.8l.3-.3c-1.9-.3-3.5 1.6-2.9 3.4.2.6.1 1-.4 1.4-.3.2-.5.5-.7.7L19.2 20l.9.9c.1-.1.2-.1.2-.2l2-2c.3-.3.5-.3.9-.2 1.8.8 3.8-.8 3.5-2.8z"/></svg>