<svg xmlns="http://www.w3.org/2000/svg" viewBox="0 0 36 36" fill="#fff" xmlns:v="https://vecta.io/nano"><path d="M21.5.9c.2.1.4.1.6.3.4.3.6.7.7 1.2v1.1a.47.47 0 0 1-.5.5.47.47 0 0 1-.5-.5v-.9c0-.4-.2-.7-.7-.7h-7.3c-.3 0-.6.2-.6.4v2.2h.4 17.7c1.1 0 1.9.6 2.2 1.6.1.2.1.4.1.6v15.7c0 1.3-.9 2.2-2.2 2.2H23h-.3c-.1-.3-.1-.7-.2-1.1h.4 8.4c.6 0 1-.3 1.2-.8v-.3-11.3-.2h-2.9V12c0 .9-.1 1-1 1h-1.5c-.5 0-.7-.2-.7-.7v-1.5h-.3H23a.47.47 0 0 1-.5-.5c0-.3.2-.5.5-.6h.3 4.3 4.7.4v-.3-2.9c0-.7-.4-1.1-1.1-1.1h-.1H5.1c-.6 0-1 .2-1.2.7 0 .1-.1.2-.1.3v3.1.1h.3 9 .3a.65.65 0 0 1 .6.6c0 .3-.2.5-.6.5h-3.1-.4v1.4c0 .6-.2.8-.8.8H7.3c-.5 0-.7-.2-.7-.7v-1.5H3.7v.3 11.1c0 .8.4 1.2 1.2 1.2h8.4.4c-.1.4-.1.7-.2 1.1h-.3-8.3c-1.4 0-2.3-.9-2.3-2.3V6.6c0-1.4.9-2.3 2.3-2.3h7 .4V3v-.8c0-.8.4-1.3 1.2-1.6 0 0 .1 0 .1-.1 2.5.4 5.2.4 7.9.4zM7.6 12.1h1v-1h-1v1zm19.8 0h1v-1h-1v1zm-11 0c-.4 0-.6-.2-.7-.6l-.6-2.8c-.1-.4-.1-.7.1-1s.5-.4.9-.4h3.7c.8 0 1.2.5 1.1 1.4l-.6 2.9c-.1.3-.2.5-.5.6l.3 1.8 1.1 7.7 1.1 7.3.3 2.3c0 .3 0 .5-.2.6l-3.8 3.2c-.3.2-.5.2-.8 0l-3.9-3.2c-.2-.2-.3-.4-.3-.7l1.8-11.8 1.1-6.9c-.2-.1-.1-.2-.1-.4zm-1.6 17.4c.1 0 .1-.1.2-.1l4.8-5.7c.4-.4.5-.8.4-1.4L19.1 15l-.4-2.8h-1.2l-2.7 17.3zm6.1-2l-4.4 5.2 1.5 1.2s.1 0 .1-.1l3.2-2.6c.1-.1.1-.3.1-.4-.1-.5-.2-1-.2-1.6l-.3-1.7zm-.4-3.1l-5.7 6.8c.3.3.6.5.9.7h.1l4.8-5.8c0-.1.1-.2.1-.2-.1-.4-.1-.9-.2-1.5zm-4.3-16v.1l.5 2.4c0 .1.1.1.2.1h2.2c.1 0 .2-.1.2-.2.1-.3.2-.7.2-1l.3-1.5c-1.2.1-2.4.1-3.6.1zm2.3 1.3a.47.47 0 0 1-.5.5.47.47 0 0 1-.5-.5.47.47 0 0 1 .5-.5.47.47 0 0 1 .5.5z"/></svg>