<svg xmlns="http://www.w3.org/2000/svg" viewBox="0 0 36 36" fill="#fff" xmlns:v="https://vecta.io/nano"><path d="M13.5 24h-12v.4 10.7c0 .5-.3.9-.8.9a.68.68 0 0 1-.7-.7V35 1 .7A.68.68 0 0 1 .7 0a.68.68 0 0 1 .7.7v1.9.4h.4 16.4.3c.6 0 .8.3.8.8v4.7.4h.4 15 .3c.3 0 .6.2.7.5s.1.6-.1.8l-1.7 2-5.2 6.3c-.1.1-.1.2-.2.2.1.1.1.2.2.3l6.9 9.6c.4.5.3 1-.2 1.2 0 .2-.2.2-.4.2h-7-13.3c-1.1 0-1.2-.1-1.2-1.2v-4.4-.4zM1.5 4.5v18H18v-18H1.5zm18 6v.4 11.8c0 .5-.1.9-.4 1.3L16 28.1c-.1.1-.1.2-.2.3h18c-.1-.1-.2-.3-.3-.4l-6.2-8.7c-.4-.5-.4-.8 0-1.2l6-7.2c.1-.1.2-.2.3-.4H19.5zM15 24v2.9l2.2-2.9H15zM9.7 7.5H4.6c-.6 0-1-.4-.8-.9.1-.4.3-.5.6-.6h.4 10c.7 0 1 .3 1 .8s-.4.7-1 .7H9.7z"/></svg>