<svg xmlns="http://www.w3.org/2000/svg" xmlns:xlink="http://www.w3.org/1999/xlink" viewBox="0 0 36 36" xmlns:v="https://vecta.io/nano"><g fill="#fff"><path d="M18.2 0l1.7.3 3.2 1c1 .3 2 .6 3.1.5.3 0 .5.2.6.5.1.4.3.8.3 1.2.2 1.4 0 2.7-.7 3.9 0 .1-.1.2-.1.3.1 2.3-.6 4.4-1.6 6.4-.4.8-1 1.6-1.6 2.4-.1.2-.2.3-.1.5.5 1.3 1.4 2 2.8 2.2 2.3.3 4.4 1 6.4 2.3 1.3.8 2.4 1.8 3 3.3.2.6.4 1.3.4 2 .2 2.1.2 4.2 0 6.4-.1 1.4-1.4 2.7-2.9 2.7h-.4H3.1c-1.9 0-3.1-1.2-3.3-3.1-.2-2.2-.1-4.4.2-6.6.2-1.7 1.2-3 2.5-4.1 1.6-1.2 3.4-1.9 5.3-2.4l2.4-.5c1.1-.2 1.8-.9 2.3-1.9 0-.1 0-.2-.1-.3-1.3-1.6-2.1-3.4-2.7-5.4-.5-1.6-.7-3.3-.7-5 .3-.7.5-1.6 1-2.5.3-.6.8-1 1.4-1.3.1 0 .2-.1.3-.2C13.1 1.1 14.8.2 16.8 0h.1 1.3zm-1.9 34.9c0-.1 0-.1 0 0v-.3c-.1-1.9-.7-3.7-1.9-5.2l-6.1-8c-.4-.5-.2-.4-.8-.3-1.6.5-3.2 1.2-4.5 2.3-.9.8-1.6 1.8-1.8 3-.3 2.2-.4 4.4-.1 6.5.1 1.3.9 2 2.2 2h12.5.5zm3.9-.1h.1 12.6c1 0 1.7-.8 1.8-1.7.2-2 .1-4.1 0-6.1-.1-1.3-.6-2.5-1.5-3.4-1.3-1.3-3-2-4.7-2.6-.1 0-.2.1-.2.1l-6.1 8c-.7.9-1.2 1.9-1.5 2.9-.4 1-.5 1.9-.5 2.8zM14.1 9.6l.2-1.3c0-.3.1-.5.4-.6s.5 0 .7.2c.7.6 1.4 1 2.2 1.2 1.9.5 3.7.4 5.5-.2 1.5-.5 2.4-1.5 2.8-3 .2-.8.2-1.7.1-2.6 0-.2-.1-.3-.4-.3h-.3c-1.5-.2-2.9-.6-4.3-1.1-.8-.3-1.7-.6-2.5-.7-2-.2-3.8.3-5.3 1.7-.5.4-.8 1-1.4 1.1h0c-.6.4-.9 1.1-1 1.7a9.15 9.15 0 0 0 0 3.3c0 .4.1.8.2 1.1h.1c.5-.4.9-.8 1.4-1.1.3-.3.5-.3.9-.1 0 .3.3.5.7.7zm1.2-.3c0 .3-.1.6-.1.9-.1.8-.7 1.1-1.3.6-.3-.2-.7-.4-1-.7-.1-.1-.2-.1-.3 0-.4.4-.9.7-1.3 1.1-.1.1-.1.2-.1.3.5 1.9 1.4 3.7 2.8 5.2 1.3 1.4 3 2 5 1.7 1.2-.2 2.1-.9 2.9-1.8 1.6-1.8 2.7-3.8 3.3-6.1l.3-1.5c-1.5 1.2-3.3 1.5-5 1.6-2 .1-3.6-.3-5.2-1.3zm11.9 11.4c-.4-.1-.9-.1-1.3-.3-.3-.1-.5 0-.7.3l-3.4 4.8c-.5.8-1.5.8-2.1.1 0-.1-.1-.1-.1-.2h-.1v.3c.1 1 .3 1.9.5 2.9.1.4.1.9.2 1.3l7-9.2zm-4.6-1.9c-.1.1-.2.1-.2.2l-2.9 2.5c-.4.3-.5.8-.2 1.2l1.3 2.1c.2.4.4.4.6 0l3-4.3c.1-.1.1-.2.2-.3l-1.8-1.4zM15.4 25h0l1.7-2.5c.2-.4.1-.8-.2-1.1l-1.6-1.3c-.5-.5-1.1-.9-1.6-1.4L12 20.1l3.4 4.9zm3.6 9.9l.4-2.5c0-.2.1-.4 0-.6l-.7-4.4-.3-1.8c-.6-.1-.6-.1-.6.4l-.6 4.6c-.1.7-.2 1.4.1 2a.9.9 0 0 1 .1.5c.1.5.1 1.1.2 1.6.4.2.9.2 1.4.2zm-2.3-9.2s0-.1 0 0c-.2 0-.3 0-.4.1-.7.6-1.6.5-2.1-.2l-3.5-5c0-.1-.1-.1-.2-.1-.4.1-.8.1-1.3.2l6.9 9.1c.3-1.4.4-2.8.6-4.1zm3.7-6.5c-.6.1-1.3.4-2 .4-.7.1-1.4 0-2.1-.1h0c.5.5 1 .9 1.6 1.4.1.1.3 0 .5 0 .2-.1.3-.3.4-.4l1.6-1.3zm-2.3 3.7c-.3.5-.6 1.1-1 1.6H19c-.2-.5-.5-1-.9-1.6zm10 5.1h1.5c.7 0 1.1.4 1.1 1.1v2.3c0 .6-.3 1-.9 1.2l-1.4.5c-.2.1-.5.1-.7 0-.5-.1-1-.3-1.4-.5-.5-.2-.8-.6-.8-1.1V29a.94.94 0 0 1 1-1h1.6 0zm-1.4 1.2v.2 2c0 .1.1.2.2.3 1.2.5 1.2.5 2.5 0h.1c.2 0 .2-.1.2-.3v-1.3-.9h-3z"/><path d="M17.6 1.9l1.5.3c.4.1.5.4.4.7s-.4.5-.7.4c-1.4-.4-2.7-.2-3.8.7-.1.1-.2.2-.4.3-.3.2-.6.2-.8 0s-.2-.5 0-.8c.9-.9 2.4-1.5 3.8-1.6z"/></g><image width="37" height="37" xlink:href="123FB6C4.jpg" transform="matrix(.973 0 0 .973 362.2194 -72.4123)" overflow="visible"/></svg>